<svg
    xmlns="http://www.w3.org/2000/svg"
    viewBox="0 0 100 100"
    id="vector">
    <path
        id="path"
        d="M 53.77 0.11 C 56.42 0.49 59.11 0.72 61.71 1.28 C 69.02 2.85 73.83 6.82 75.84 13.02 C 78.2 20.27 78.68 27.73 76.9 35.06 C 74.38 45.43 67 52.47 55.17 55.89 C 50.9 57.13 46.82 56.35 42.92 54.78 C 33.15 50.83 27.11 44.25 24.67 35.27 C 23.5 30.95 23.66 26.52 24.06 22.15 C 24.34 19.12 24.85 16.06 25.77 13.13 C 27.73 6.82 32.61 2.83 40.01 1.26 C 42.57 0.71 45.22 0.49 47.84 0.12 C 49.82 0.11 51.8 0.11 53.77 0.11 Z M 73.73 23.04 C 73.13 23.12 72.65 23.18 72.18 23.26 C 67.02 24.12 61.83 24.61 56.58 23.95 C 51.03 23.25 46.09 21.62 42.87 17.34 C 42.74 17.17 42.39 17.02 42.15 17.03 C 38.23 17.03 34.51 17.68 31.41 19.88 C 29.19 21.45 27.41 23.24 27.79 26 C 27.95 27.12 27.75 28.28 27.82 29.41 C 28.37 38.83 33.03 46.18 42.75 50.92 C 46.85 52.92 51.1 53.91 55.78 52.19 C 65.32 48.69 71.12 42.62 73.24 33.92 C 74.08 30.35 73.81 26.76 73.73 23.04 Z"
        fill="#499653"/>
    <path
        id="path_1"
        d="M 50.94 67.12 C 51.96 64.83 53.04 62.55 53.97 60.23 C 54.45 59.03 55.25 58.37 56.71 58.08 C 59.77 57.46 62.54 56.23 65.03 54.59 C 66.14 53.86 67.13 53.8 68.36 54.39 C 75.2 57.69 82.05 60.98 88.95 64.18 C 92.48 65.82 94.72 68.33 96.33 71.36 C 98.71 75.83 99.98 80.58 100.83 85.41 C 100.96 86.15 100.32 87.09 99.77 87.78 C 97.69 90.4 94.74 92.17 91.54 93.65 C 85.59 96.4 79.14 97.84 72.53 98.74 C 61.84 100.2 51.08 100.39 40.28 99.8 C 33.64 99.44 27.06 98.71 20.64 97.18 C 14.64 95.75 8.92 93.79 4.22 90.12 C 3.66 89.68 3.15 89.2 2.64 88.71 C 1.14 87.29 0.49 85.8 1.04 83.75 C 2.28 79.08 3.57 74.45 6.1 70.14 C 7.53 67.7 9.48 65.71 12.33 64.37 C 19.45 61.03 26.52 57.62 33.61 54.23 C 34.55 53.78 35.4 53.83 36.25 54.39 C 39.06 56.23 42.17 57.54 45.6 58.26 C 46.55 58.46 47.07 58.96 47.4 59.72 C 48.47 62.18 49.57 64.64 50.66 67.09 C 50.76 67.1 50.85 67.11 50.94 67.12 Z M 80.71 77.11 C 74.9 77.11 69.28 77.11 63.62 77.11 C 63.62 78.43 63.62 79.66 63.62 80.96 C 66.36 81.69 69.11 82.42 71.85 83.13 C 72.09 83.19 72.38 83.17 72.63 83.11 C 75.13 82.46 77.63 81.8 80.11 81.11 C 80.36 81.04 80.67 80.74 80.68 80.53 C 80.74 79.41 80.71 78.28 80.71 77.11 Z"
        fill="#499653"/>
</svg>
